<svg width="34" height="34" viewBox="0 0 34 34" fill="none" xmlns="http://www.w3.org/2000/svg">
<path d="M11.6667 33V20C11.6667 18.3431 13.0098 17 14.6667 17H19.3333C20.9902 17 22.3333 18.3431 22.3333 20V33M33 29.8V13.762C33 12.783 32.5224 11.8657 31.7204 11.3043L18.7204 2.20427C17.6874 1.4812 16.3126 1.4812 15.2796 2.20427L2.27961 11.3043C1.47763 11.8657 1 12.783 1 13.762V29.8C1 30.6487 1.3746 31.4626 2.0414 32.0627C2.70819 32.6629 3.61256 33 4.55556 33H29.4444C30.3874 33 31.2918 32.6629 31.9586 32.0627C32.6254 31.4626 33 30.6487 33 29.8Z" stroke="white" stroke-width="2" stroke-linecap="round" stroke-linejoin="round"/>
</svg>
